<?xml version="1.0" encoding="utf-8"?>
<!-- Generator: Adobe Illustrator 25.4.1, SVG Export Plug-In . SVG Version: 6.00 Build 0)  -->
<svg version="1.1" id="Logo_x5F_Chili__x26__Soft_Black"
	 xmlns="http://www.w3.org/2000/svg" xmlns:xlink="http://www.w3.org/1999/xlink" x="0px" y="0px" viewBox="0 0 1010 150"
	 style="enable-background:new 0 0 1010 150;" xml:space="preserve">
<style type="text/css">
	.st0{fill:#302D2D;}
	.st1{fill:url(#SVGID_1_);}
	.st2{fill:#FF1453;}
</style>
<g>
	<path class="st0" d="M790.8,142.6L756,92.1c-0.6-0.9-0.2-2.1,0.8-2.5c19.9-6.3,31.4-22.5,31.4-43.5c0-27.1-19.1-46-50.5-46H689
		c-9,0-16.3,7.3-16.3,16.3v127.1c0,0.9,0.7,1.6,1.6,1.6h27.1c0.9,0,1.6-0.7,1.6-1.6V93.9c0-0.9,0.7-1.6,1.6-1.6h17
		c0.6,0,1.1,0.3,1.4,0.7l32.7,51.3c0.3,0.5,0.8,0.7,1.4,0.7h32.4C790.8,145.1,791.6,143.7,790.8,142.6z M736.9,65.6h-32.2
		c-0.9,0-1.6-0.7-1.6-1.6V31.4c0-0.9,0.7-1.6,1.6-1.6h32.2c13.1,0,19.9,6.2,19.9,18C756.8,59.4,750,65.6,736.9,65.6z"/>
	<path class="st0" d="M1009.8,141.6c0.4,0.7,0.1,1.7-0.6,2.1c-5.7,3.4-12.2,5.8-19.3,5.8c-20.9,0-30.6-14.3-30.6-34.6V10.6
		c0-0.7,0.5-1.4,1.2-1.6L986,2.9c1-0.2,2,0.5,2,1.6v110.6c0,5.7,2.8,9.2,7.8,9.2c1.1,0,2.3-0.2,3.6-0.6c0.8-0.2,1.6,0.1,1.9,0.8
		L1009.8,141.6z"/>
	<path class="st0" d="M959.8,141.6c0.4,0.7,0.1,1.7-0.6,2.1c-5.7,3.4-12.2,5.8-19.3,5.8c-20.9,0-30.6-14.3-30.6-34.6V22.5
		c0-0.7,0.5-1.4,1.2-1.6l25.4-6.3c1-0.3,2,0.5,2,1.6v98.9c0,5.7,2.7,9.2,7.8,9.2c1.1,0,2.4-0.2,3.6-0.6c0.8-0.2,1.6,0.1,1.9,0.8
		L959.8,141.6z"/>
	<path class="st0" d="M843.3,40C810.7,40,787,62.6,787,94.9c0,32.5,23.7,55.1,56.3,55.1c32.6,0,56.5-22.6,56.5-55.1
		C899.9,62.3,876,40,843.3,40z M843.3,122.6c-16.2,0-27-11.4-27-28.4s10.8-28.4,27-28.4c16.2,0,27,11.6,27,28.4
		C870.4,111.2,859.6,122.6,843.3,122.6z"/>
	<path class="st0" d="M494.7,103.6h-71.4c-0.9,0-1.7,0.8-1.6,1.7c0.3,8.3,6.3,16.5,18,18.7c11.1,2,21.1-0.4,30-7.5
		c0.4-0.3,0.9-0.6,1-0.8c5.2,5.2,10.4,10.4,15.6,15.6c0.7,0.7,0.6,1.7-0.1,2.4c-3.1,2.9-6.8,5.3-10.9,7.2c-17.7,8.5-35.9,9.1-54.2,2
		c-11.6-4.5-19.5-13.1-23.7-24.6c-6.4-17.7-6.9-33-0.2-50.7c6.7-17.8,20.3-27,38.8-29.6c8.3-1.2,16.5-0.8,24.6,1.3
		c18.3,4.9,28.8,17.3,33.6,35.1c2.4,8.9,2.6,18,2.1,27.6C496.3,102.9,495.6,103.6,494.7,103.6z M467.7,83.5c0.9,0,1.6-0.7,1.6-1.6
		c0.1-11.5-10.6-21.4-23.9-21.7c-12.8-0.3-23.9,9.7-24.4,21.7c0,0.9,0.7,1.7,1.6,1.7H467.7z"/>
	<path class="st0" d="M602.1,142.5c0.8,1.1,0,2.6-1.3,2.6c-10.2,0-19.9,0-29.6-0.1c-0.8,0-1.8-1-2.4-1.8
		c-6.9-9.4-13.8-18.8-20.6-28.3c-0.2-0.3-0.5-0.7-0.8-1c-0.7-0.8-1.9-0.8-2.6,0c-1.3,1.8-2.5,3.4-3.8,5.1
		c-5.9,8-11.7,16.1-17.7,24.1c-0.6,0.8-2,1.7-3,1.8c-10.3,0.1-20.6,0.1-30.8,0.1c-0.3,0-0.5-0.1-1.2-0.3
		c13.7-17.9,27.3-31.9,40.9-49.6c0.4-0.6,0.5-1.4,0-2c-12.3-16.1-24.6-33.2-37.1-49.6c-0.8-1.1-0.1-2.6,1.3-2.6c0.4,0,0.9,0,1.4,0.1
		c8.2,0.8,16.5,1,24.7,0c3.3-0.4,4.9,0,6.3,2c6,8.5,12.2,18.2,18.4,26.6c0.2,0.3,0.4,0.6,0.7,0.9c0.7,0.8,1.9,0.8,2.6,0
		c0.1-0.1,0.2-0.3,0.3-0.4c6.3-8.6,12.6-18.4,18.7-27.1c1.5-2.1,3.2-2.4,6.7-1.9c7.6,1,15.3,1.1,22.9,0c1-0.1,1.8-0.2,2.7-0.2
		c1.3,0,2,1.5,1.3,2.6c0,0,0,0.1-0.1,0.1c-12,15.6-23.9,32.6-36,48.1c-1.4,1.8-1.5,2.9-0.1,4.8c12.8,16.5,25.4,29.1,38.1,45.7
		C602,142.4,602,142.5,602.1,142.5z"/>
	<path class="st0" d="M632.6,9.7c0.9,0,1.6,0.7,1.6,1.6c0,4.5,0,4.6,0,9.8c0,5.2,0,14.7,0,20.8c0,0.9,0.7,1.6,1.6,1.6h25.3
		c0.9,0,1.6,0.7,1.6,1.6v19.2c0,0.9-0.7,1.6-1.6,1.6h-25.2c-0.9,0-1.6,0.7-1.6,1.5c0,0.2,0,0.5,0,0.7c0,15.7-0.1,26.2,0,41.9
		c0.1,9.8,4,14.3,12.4,14c0,0,2.6,0.5,6.1-2.9c0.7-0.7,1.8-0.6,2.4,0.2l11.6,15c0.5,0.7,0.4,1.7-0.3,2.2
		c-13.4,10.5-26.5,9.2-27.5,9.1c0,0-0.1,0-0.1,0c-4.6,0-9.1-0.6-13.7-2c-10.1-3.1-15.3-10.6-16.9-20.7c-0.5-3.2-0.6-6.4-0.6-9.6
		c0-17.1,0-34.2,0.1-51.2c0-1,0-3.4,0-3.4l0-22.2l-0.1-16.7c0-6.7,5.4-12.2,12.1-12.2H632.6z"/>
	<path class="st0" d="M382.8,143.5v-2h0c-0.1-45.9-0.1-91.8,0-137.7h0V0.1h-28.3v2.2c0,0.2,0,0.4,0,0.7c0.1,31.1,0.1,62.3,0.1,93.4
		c0,0.9,0,1.8,0,2.6c-0.2,0.1-0.4,0.1-0.6,0.2c-0.5-0.7-1-1.5-1.5-2.2c-21.9-31.5-43.7-63.1-65.6-94.6c-0.8-1.2-1.5-2.2-3.4-2.2
		l-10,0c-9,0-16.3,7.3-16.3,16.3V18v49.6V113v28.5v2v1.6h1.6h0.1h26.8h0.1h1.6v-1v-0.6v-2V93.9V48.5c22.2,31.9,45,64.7,67.1,96.6
		c0,0,0.6,0,2.5,0c8-0.1,16.1-0.1,24.1,0v0h1.8V143.5C382.8,143.5,382.8,143.5,382.8,143.5C382.8,143.5,382.8,143.5,382.8,143.5z"/>
</g>
<g>
	<linearGradient id="SVGID_1_" gradientUnits="userSpaceOnUse" x1="0" y1="126.1882" x2="112.4842" y2="126.1882">
		<stop  offset="0" style="stop-color:#FF1453"/>
		<stop  offset="0.88" style="stop-color:#D10342"/>
	</linearGradient>
	<path class="st1" d="M112.5,107.2H49.1H31.3C14,107.2,0,121.5,0,139.1v6h112.5V107.2z"/>
	<path class="st2" d="M112,0v0.1C72.2,0.4,40,32.7,40,72.6c0,40,32.5,72.5,72.5,72.5c40,0,72.5-32.5,72.5-72.5
		c0-12.5-3.2-24.3-8.8-34.6h17c17.3,0,31.3-14.3,31.3-32V0H112z M112.5,107.2c-19.1,0-34.6-15.5-34.6-34.6
		c0-19.1,15.5-34.6,34.6-34.6c19.1,0,34.6,15.5,34.6,34.6C147.1,91.7,131.6,107.2,112.5,107.2z"/>
</g>
</svg>
